<svg width="22" height="21" viewBox="0 0 22 21" fill="none" xmlns="http://www.w3.org/2000/svg">
<g clip-path="url(#clip0_339_2917)">
<path d="M21.3331 10.2222C21.3331 4.57664 16.7565 0 11.1109 0C5.46531 0 0.888672 4.57664 0.888672 10.2222C0.888672 15.3243 4.62677 19.5534 9.51367 20.3203V13.1771H6.91819V10.2222H9.51367V7.97014C9.51367 5.4082 11.0398 3.99306 13.3748 3.99306C14.4928 3.99306 15.663 4.19271 15.663 4.19271V6.70833H14.374C13.1042 6.70833 12.7081 7.49636 12.7081 8.30556V10.2222H15.5432L15.09 13.1771H12.7081V20.3203C17.595 19.5534 21.3331 15.3243 21.3331 10.2222Z" fill="white"/>
</g>
<defs>
<clipPath id="clip0_339_2917">
<rect width="20.4444" height="20.4444" fill="white" transform="translate(0.888672)"/>
</clipPath>
</defs>
</svg>
